PathFileType	4	(X/Y/Z)	1103211_Cal01.trc	
DataRate	CameraRate	NumFrames	NumMarkers	Units	OrigDataRate	OrigDataStartFrame	OrigNumFrames
300	300	4	77	mm	300	86	337
Frame#	Time	CLAV			STRN			RSHO			LSHO			C7			T10			RBAK			RASI			LASI			RPSI			LPSI			LGTR			RGTR			LHJC			RHJC			LMFC			RMFC			LLTP			RLTP			LMTP			RMTP			LANK			RANK			LMMA			RMMA			LHEE			RHEE			LMT5			RMT5			LTOE			RTOE			RELB			RWRA			RWRB			RFIN			LELB			LWRB			LWRA			LFIN			RFP1			RFP2			RFP3			RFM1			RFM2			RFM3			RFA1			RFA2			RFA3			LFP1			LFP2			LFP3			LFM1			LFM2			LFM3			LFA1			LFA2			LFA3			LKNE			RKNE			RTP1			RTP2			RTP3			RTA1			RTA2			RTA3			LTP1			LTP2			LTP3			LTA1			LFHD			LBHD			RFHD			RBHD			LUPA			LFRA			RUPA			RFRA			
		X1	Y1	Z1	X2	Y2	Z2	X3	Y3	Z3	X4	Y4	Z4	X5	Y5	Z5	X6	Y6	Z6	X7	Y7	Z7	X8	Y8	Z8	X9	Y9	Z9	X10	Y10	Z10	X11	Y11	Z11	X12	Y12	Z12	X13	Y13	Z13	X14	Y14	Z14	X15	Y15	Z15	X16	Y16	Z16	X17	Y17	Z17	X18	Y18	Z18	X19	Y19	Z19	X20	Y20	Z20	X21	Y21	Z21	X22	Y22	Z22	X23	Y23	Z23	X24	Y24	Z24	X25	Y25	Z25	X26	Y26	Z26	X27	Y27	Z27	X28	Y28	Z28	X29	Y29	Z29	X30	Y30	Z30	X31	Y31	Z31	X32	Y32	Z32	X33	Y33	Z33	X34	Y34	Z34	X35	Y35	Z35	X36	Y36	Z36	X37	Y37	Z37	X38	Y38	Z38	X39	Y39	Z39	X40	Y40	Z40	X41	Y41	Z41	X42	Y42	Z42	X43	Y43	Z43	X44	Y44	Z44	X45	Y45	Z45	X46	Y46	Z46	X47	Y47	Z47	X48	Y48	Z48	X49	Y49	Z49	X50	Y50	Z50	X51	Y51	Z51	X52	Y52	Z52	X53	Y53	Z53	X54	Y54	Z54	X55	Y55	Z55	X56	Y56	Z56	X57	Y57	Z57	X58	Y58	Z58	X59	Y59	Z59	X60	Y60	Z60	X61	Y61	Z61	X62	Y62	Z62	X63	Y63	Z63	X64	Y64	Z64	X65	Y65	Z65	X66	Y66	Z66	X67	Y67	Z67	X68	Y68	Z68	X69	Y69	Z69	X70	Y70	Z70	X71	Y71	Z71	X72	Y72	Z72	X73	Y73	Z73	X74	Y74	Z74	X75	Y75	Z75	X76	Y76	Z76	X77	Y77	Z77	

85	0.28000	190.05635	1375.40845	-47.60225	242.22960	1204.60901	-50.76161	89.58653	1425.01221	89.47868	87.85567	1433.54993	-192.03505	50.31659	1429.54016	-46.39397	15.99309	1134.98889	-51.86327	-7.49002	1327.34204	45.06094	181.25032	946.84619	61.87862	176.67964	953.06793	-165.47441	0.61415	955.98004	0.21472	-0.88312	954.88867	-97.87743	110.42812	868.93030	-216.63051	110.90529	858.15063	119.56085	104.97273	872.80585	-132.29689	104.70572	868.51849	26.63116	64.00998	466.55991	-83.48067	65.92987	471.83463	-15.30620	72.34485	447.75491	-212.46672	78.18909	450.93182	111.63783	62.36940	437.94312	-92.85445	66.16573	441.35165	-6.32738	57.54198	91.06645	-206.97777	55.88849	87.33402	108.59840	73.45012	98.62238	-121.22334	80.65227	92.81986	24.94960	-14.71716	59.92624	-159.29494	-15.88803	62.96959	60.17278	168.56532	30.91290	-243.54500	165.70441	40.85982	157.76172	212.91237	64.85289	-176.04436	214.54344	65.17281	91.10602	62.80765	1298.46729	348.12915	93.17671	1313.73926	592.91376	59.66846	1248.70813	587.56250	56.81506	1302.47949	667.66760	43.18137	1302.85291	-436.14648	37.25347	1264.75317	-685.56354	69.27696	1326.35437	-679.52777	30.80001	1321.29431	-758.82886	108.62451	762.90216	132.54672	106.69427	669.19043	131.21431	100.43590	577.66992	118.67270	171.05022	818.41333	113.47363	177.84801	717.29004	118.42392	174.71803	625.04456	108.09546	215.23894	771.31238	66.77637	209.53615	670.94177	65.40393	191.41557	580.65253	52.46057	108.19749	769.21265	-228.52007	102.35762	659.71295	-223.25041	93.58820	582.98969	-213.00124	165.92155	824.89099	-210.63081	167.03450	718.76508	-217.38219	159.81313	625.55353	-208.88295	217.09956	769.29681	-158.62221	208.09441	665.75946	-147.48949	187.24626	576.21033	-141.91805	78.10109	485.36313	-209.02669	88.89645	479.05295	109.28923	64.39796	374.18967	128.77548	55.26253	268.92197	125.78336	54.63100	182.67873	114.57500	124.80615	393.11392	63.73528	116.41650	315.58636	62.81743	108.19742	232.83847	65.07736	68.23256	360.24530	-228.49532	65.64488	279.04294	-225.42149	62.33632	194.03893	-216.68080	121.13844	400.70883	-155.90239	188.36949	1634.89917	-108.74763	75.05319	1608.17981	-128.55290	179.36156	1626.29187	39.05016	43.13139	1597.11414	35.24109	63.57874	1394.66357	-292.50690	26.03443	1308.53699	-584.38879	59.44363	1338.34082	274.13968	46.48750	1295.42358	432.13159	
86	0.28333	190.06010	1375.38953	-47.60902	242.22789	1204.62573	-50.76357	89.58057	1424.99817	89.48125	87.86707	1433.53467	-192.03856	50.31458	1429.55103	-46.38600	15.99369	1134.98499	-51.86302	-7.51751	1327.34497	45.06287	181.25002	946.84595	61.87422	176.70845	953.12018	-165.47688	0.62126	955.98169	0.18892	-0.86331	954.91229	-97.90279	110.50694	868.91223	-216.62587	110.90346	858.16113	119.55141	105.00290	872.84534	-132.32787	104.71556	868.52100	26.59914	64.03052	466.57254	-83.45848	65.96263	471.79230	-15.30928	72.35818	447.74188	-212.47304	78.20929	450.94568	111.62483	62.28905	438.00183	-92.78154	66.15506	441.39865	-6.32658	57.52324	91.07012	-206.97899	55.89842	87.33882	108.60747	73.52303	98.65165	-121.22014	80.65520	92.83379	24.96570	-14.70381	59.91211	-159.28728	-15.84462	62.96307	60.17227	168.63980	30.91183	-243.53807	165.72044	40.84399	157.74168	212.94804	64.86002	-176.04179	214.56062	65.16396	91.10236	62.80026	1298.44556	348.13263	93.14273	1313.67346	592.90741	59.64134	1248.67261	587.58124	56.75832	1302.46692	667.62000	43.14206	1302.85986	-436.11438	37.10446	1264.77856	-685.49182	69.18256	1326.33862	-679.55981	30.68355	1321.29712	-758.83612	108.63226	762.92291	132.54807	106.69197	669.17828	131.21057	100.43843	577.66919	118.67198	171.09601	818.39886	113.46074	177.84209	717.29675	118.38615	174.71257	625.03589	108.08080	215.28770	771.29340	66.77112	209.53004	670.93231	65.39809	191.44939	580.65259	52.44736	108.21173	769.21075	-228.52028	102.35851	659.71136	-223.25020	93.58017	582.97510	-213.00328	165.94652	824.87164	-210.64818	167.01988	718.76636	-217.36653	159.85239	625.55078	-208.88536	217.13548	769.30212	-158.62813	208.09639	665.76031	-147.49001	187.27754	576.18878	-141.92268	78.15279	485.36014	-209.01183	88.93927	479.05072	109.27956	64.39101	374.17880	128.77878	55.25253	268.91110	125.75719	54.62706	182.66782	114.57677	124.80623	393.11395	63.73531	116.40944	315.55804	62.78151	108.18004	232.84308	65.07568	68.24854	360.21545	-228.50029	65.63234	279.05545	-225.42473	62.35266	194.04951	-216.68300	121.17123	400.71127	-155.86830	188.34731	1634.89783	-108.73772	75.03468	1608.16711	-128.54729	179.31310	1626.27905	39.05193	43.11730	1597.10010	35.22127	63.54924	1394.29041	-292.54047	26.03164	1308.53735	-584.38898	59.44226	1338.32568	274.13821	46.43036	1295.41956	432.13208	
87	0.28667	190.04836	1375.39160	-47.61736	242.21880	1204.63000	-50.76945	89.57153	1424.98401	89.43768	87.84804	1433.53491	-192.03236	50.31416	1429.53040	-46.39211	15.99198	1134.96899	-51.85945	-7.51992	1327.32068	45.05725	181.28142	946.87518	61.81989	176.72527	953.09546	-165.52388	0.64695	955.95862	0.14357	-0.84332	954.89484	-97.94157	110.47490	868.93573	-216.66753	110.89011	858.16968	119.55641	105.03209	872.81915	-132.35597	104.75505	868.53198	26.57208	63.99777	466.60934	-83.45396	65.91106	471.76767	-15.30431	72.34309	447.76514	-212.47615	78.21803	450.93182	111.63446	62.37160	437.99292	-92.87776	66.16708	441.42706	-6.32878	57.55754	91.07362	-206.96117	55.94099	87.33537	108.60434	73.54279	98.65241	-121.22237	80.65407	92.83030	24.96779	-14.71820	59.91295	-159.29338	-15.83678	62.94514	60.15367	168.46982	30.79213	-243.61549	165.75056	40.85640	157.73602	212.95372	64.85568	-176.08128	214.54958	65.15798	91.10782	62.76904	1298.42297	348.14978	93.07727	1313.65698	592.90601	59.63791	1248.64783	587.58746	56.75539	1302.44385	667.61157	43.14119	1302.82434	-436.11243	37.01669	1264.75085	-685.48340	69.18146	1326.31177	-679.53882	30.69789	1321.27502	-758.80768	108.64534	762.89990	132.57175	106.67995	669.19958	131.21767	100.43753	577.66827	118.67316	171.09819	818.38831	113.44382	177.84749	717.28680	118.39485	174.69820	625.03149	108.03455	215.29475	771.31049	66.74585	209.53752	670.94757	65.38170	191.45396	580.68494	52.43982	108.24741	769.23175	-228.55537	102.34816	659.69391	-223.25716	93.62761	582.95807	-213.01112	165.93767	824.88776	-210.68251	167.03540	718.74725	-217.38512	159.85052	625.57422	-208.92128	217.09560	769.31903	-158.62599	208.10030	665.75824	-147.49150	187.27736	576.16992	-141.92250	78.15392	485.36566	-209.02626	88.93156	479.03604	109.25273	64.42735	374.17154	128.77225	55.26128	268.93069	125.76822	54.61754	182.67226	114.56424	124.80482	393.11060	63.73157	116.41983	315.56631	62.80815	108.19685	232.84410	65.04529	68.18718	360.16235	-228.55141	65.62672	279.01022	-225.42671	62.35410	194.04211	-216.68462	121.08241	400.66965	-155.90144	188.35033	1634.86279	-108.76875	75.01390	1608.18811	-128.50789	179.35701	1626.26868	39.05966	43.08567	1597.10400	35.25398	63.56598	1394.25159	-292.56268	26.01779	1308.52649	-584.41730	59.57394	1338.33618	274.03406	46.42804	1295.41980	432.13254	
88	0.29000	190.04985	1375.42139	-47.62721	242.22127	1204.66174	-50.77824	89.56868	1425.01575	89.43217	87.78561	1433.55713	-192.05296	50.29767	1429.55542	-46.45711	15.96101	1134.95764	-51.87193	-7.52361	1327.31091	44.99432	181.26891	946.88068	61.83304	176.70253	953.06067	-165.51878	0.63317	955.98590	0.16370	-0.86201	954.88196	-97.92650	110.43208	868.94525	-216.66103	110.92636	858.17816	119.50487	105.00143	872.79883	-132.32942	104.73145	868.54028	26.59941	64.02109	466.61020	-83.49013	65.98131	471.77698	-15.32515	72.31378	447.77466	-212.50099	78.19008	450.97064	111.61783	62.36444	438.02231	-92.88570	66.17604	441.41068	-6.33119	57.55423	91.06822	-206.95891	55.91713	87.33968	108.60750	73.49088	98.67194	-121.21498	80.60628	92.85278	24.95447	-14.72723	59.92425	-159.32588	-15.85813	62.95768	60.14671	168.50635	30.80936	-243.60008	165.72762	40.88015	157.70949	212.96413	64.86227	-176.09492	214.54317	65.18109	91.09204	62.70856	1298.38708	348.09882	93.04619	1313.64868	592.91278	59.63965	1248.60535	587.54932	56.69304	1302.41663	667.59827	43.15504	1302.79224	-436.11426	36.99441	1264.72998	-685.46716	69.15575	1326.29834	-679.56451	30.64178	1321.25488	-758.82654	108.61752	762.91711	132.53133	106.66473	669.23431	131.21454	100.42235	577.70471	118.66829	171.08395	818.39032	113.45914	177.87834	717.29419	118.36401	174.69713	625.05951	108.03050	215.27818	771.31934	66.73868	209.53996	670.97650	65.39082	191.44701	580.70221	52.43988	108.21614	769.26398	-228.58388	102.24881	659.64508	-223.29674	93.64923	582.95325	-213.01497	165.36166	824.74780	-210.63136	167.03661	718.73956	-217.38728	159.78877	625.57166	-208.92882	217.12526	769.35016	-158.65456	208.05922	665.76398	-147.49632	187.19691	576.16400	-141.88954	78.15167	485.37442	-209.04152	88.91258	479.07364	109.24925	64.42438	374.20642	128.76547	55.24664	268.93671	125.78281	54.60762	182.71330	114.55711	124.80879	393.15515	63.72266	116.43250	315.61340	62.77303	108.23059	232.93121	65.06277	68.22099	360.24933	-228.53722	65.58566	279.03662	-225.42906	62.32994	194.03900	-216.69298	121.02635	400.63779	-155.90147	188.26799	1634.88074	-108.81767	74.98759	1608.20361	-128.54530	179.41774	1626.28271	39.02837	43.09554	1597.10388	35.24782	63.50612	1394.26184	-292.52521	26.01777	1308.51221	-584.41571	59.52834	1338.32495	274.01117	46.42059	1295.43237	432.12238	
